<?xml version="1.0" standalone="no"?>
<!DOCTYPE svg PUBLIC "-//W3C//DTD SVG 20010904//EN"
 "http://www.w3.org/TR/2001/REC-SVG-20010904/DTD/svg10.dtd">
<svg version="1.0" xmlns="http://www.w3.org/2000/svg"
 width="270.000000pt" height="270.000000pt" viewBox="0 0 270.000000 270.000000"
 preserveAspectRatio="xMidYMid meet">
<metadata>
Created by potrace 1.11, written by Peter Selinger 2001-2013
</metadata>
<g transform="translate(0.000000,270.000000) scale(0.100000,-0.100000)"
fill="#000000" stroke="none">
<path d="M0 1350 l0 -1350 1350 0 1350 0 0 1350 0 1350 -1350 0 -1350 0 0
-1350z m2238 925 l62 -28 0 -50 0 -49 -27 18 c-73 48 -107 58 -193 58 -124 1
-184 -35 -232 -139 -19 -42 -23 -67 -23 -155 0 -88 4 -113 23 -155 48 -104
107 -140 232 -140 86 0 118 10 193 59 l27 18 0 -49 0 -50 -61 -28 c-43 -19
-84 -29 -139 -32 -160 -11 -285 57 -346 189 -27 59 -29 71 -29 188 0 117 2
129 29 188 38 83 107 145 190 172 88 29 210 23 294 -15z m-1678 -295 l76 -305
68 270 c37 149 71 287 77 308 l10 37 54 0 54 0 10 -37 c6 -21 40 -159 78 -308
l67 -270 76 307 75 308 48 0 c31 0 47 -4 47 -12 0 -7 -40 -170 -88 -363 l-88
-350 -62 -3 -61 -3 -10 38 c-6 21 -40 159 -76 307 -36 148 -67 271 -69 274 -2
2 -34 -120 -71 -270 -36 -150 -70 -290 -76 -310 l-10 -38 -62 0 -62 0 -91 365
-92 366 51 -3 51 -3 76 -305z m338 -865 l52 -16 0 -44 c0 -25 -3 -45 -7 -45
-5 0 -39 11 -78 25 -109 39 -213 30 -261 -22 -19 -20 -24 -37 -24 -75 0 -69
25 -91 126 -113 205 -43 267 -88 280 -202 12 -97 -28 -172 -113 -214 -42 -20
-62 -23 -158 -23 -81 0 -126 6 -170 20 l-60 20 -3 52 -3 53 38 -19 c180 -92
366 -55 366 72 0 83 -37 113 -176 141 -121 25 -183 59 -212 115 -24 47 -20
145 9 194 25 42 83 82 140 97 45 12 193 3 254 -16z m1392 -35 l0 -40 -125 0
-125 0 0 -325 0 -325 -50 0 -50 0 0 325 0 325 -130 0 -130 0 0 40 0 40 305 0
305 0 0 -40z"/>
</g>
</svg>
